<svg id="Capa_1" data-name="Capa 1" xmlns="http://www.w3.org/2000/svg" viewBox="0 0 128.0654 43.3111"><defs><style>.cls-1{fill:#005491;}.cls-2{fill:#1971a8;}.cls-3{fill:#0075e2;}.cls-4{fill:#878788;}.cls-5{isolation:isolate;}</style></defs><title>LOGO-CORRECCION</title><path class="cls-1" d="M47.4,8.9c-1.8-1.6-5.7-5-7.6-6.6C38.2,1,34.7,1.2,33.5,1.2s-15.2.1-15.2.1c-2.8,0-3.9,1.2-5.3,2.4s-4.9,4-6.2,5.4S5,10.5,5,14.1V32.8c0,2.7,1.4,3.6,2.4,4.5s5.1,4.3,6.8,5.8c1.7,1.4,3,1.3,5.9,1.3s15.2.1,16.9.1,3.4-1.4,4.1-2,5.3-4.6,6.8-6c1.4-1.4,1.7-2,1.7-4.7V13.6A5.179,5.179,0,0,0,47.4,8.9Zm-8.5,7.3A2.5888,2.5888,0,0,1,36.4,19H28.6a2.7818,2.7818,0,0,0-2.9,2.5v2.8a2.8828,2.8828,0,0,0,2.8,2.9h8c1.9,0,2.5,1.4,2.5,4S37.2,34,35.4,34s-11.1-.1-15.9-.1c-4.5,0-3.9-2.2-3.9-5.2V14.5c0-1.2,1.1-2.3,3.4-2.3H36C39.1,12.1,38.9,15,38.9,16.2Z" transform="translate(-5 -1.1889)"/><path class="cls-2" d="M47.4,8.9c-1.8-1.6-5.7-5-7.6-6.6C38.2,1,34.7,1.2,33.5,1.2s-15.2.1-15.2.1c-2.8,0-3.9,1.2-5.3,2.4s-4.9,4-6.2,5.4S5,10.5,5,14.1V32.8c0,2.7,1.4,3.6,2.4,4.5s5.1,4.3,6.8,5.8c1.7,1.4,3,1.3,5.9,1.3s15.2.1,16.9.1,3.4-1.4,4.1-2,5.3-4.6,6.8-6c1.4-1.4,1.7-2,1.7-4.7V13.6A5.179,5.179,0,0,0,47.4,8.9Zm-8.5,7.3A2.5888,2.5888,0,0,1,36.4,19H28.6a2.7818,2.7818,0,0,0-2.9,2.5v2.8a2.8828,2.8828,0,0,0,2.8,2.9h8c1.9,0,2.5,1.4,2.5,4S37.2,34,35.4,34s-11.1-.1-15.9-.1c-4.5,0-3.9-2.2-3.9-5.2V14.5c0-1.2,1.1-2.3,3.4-2.3H36C39.1,12.1,38.9,15,38.9,16.2Z" transform="translate(-5 -1.1889)"/><path class="cls-3" d="M47.4,8.9c-1.8-1.6-5.7-5-7.6-6.6C38.2,1,34.7,1.2,33.5,1.2s-15.2.1-15.2.1c-2.8,0-3.9,1.2-5.3,2.4s-4.9,4-6.2,5.4S5,10.5,5,14.1V32.8c0,2.7,1.4,3.6,2.4,4.5s5.1,4.3,6.8,5.8c1.7,1.4,3,1.3,5.9,1.3s15.2.1,16.9.1,3.4-1.4,4.1-2,5.3-4.6,6.8-6c1.4-1.4,1.7-2,1.7-4.7V13.6A5.179,5.179,0,0,0,47.4,8.9Zm-8.5,7.3A2.5888,2.5888,0,0,1,36.4,19H28.6a2.7818,2.7818,0,0,0-2.9,2.5v2.8a2.8828,2.8828,0,0,0,2.8,2.9h8c1.9,0,2.5,1.4,2.5,4S37.2,34,35.4,34s-11.1-.1-15.9-.1c-4.5,0-3.9-2.2-3.9-5.2V14.5c0-1.2,1.1-2.3,3.4-2.3H36C39.1,12.1,38.9,15,38.9,16.2Z" transform="translate(-5 -1.1889)"/><path class="cls-4" d="M53.4,22h4.2s.2-2.2,1.8-2.2,1.5,1.3,1.5,1.3.2.9-1.5,2.2-5.8,4.9-5.8,4.9v2.7H64.9V27.6H60.3a25.0515,25.0515,0,0,0,3.5-2.9c1.8-1.5,1.1-4.4,1.1-4.4a4.8835,4.8835,0,0,0-4.6-3.8C55.6,16.3,53.4,18.5,53.4,22Z" transform="translate(-5 -1.1889)"/><path class="cls-4" d="M76.6,22.9s1.3-.4,1.3-2.7c0-2.4-2-3.8-4.4-3.8H66.4V30.8h8c3.1,0,4.2-2.9,4.2-4.4A3.8362,3.8362,0,0,0,76.6,22.9Zm-6-2.9h2c.9,0,1.1.4,1.1.9,0,.4-.2.9-1.3.9H70.6Zm2.1,7.3H70.6V25.1h2.3c1,0,1.3.6,1.3,1.1S74,27.3,72.7,27.3Z" transform="translate(-5 -1.1889)"/><g class="cls-5"><path class="cls-3" d="M82.05,23.5151a8.1584,8.1584,0,0,0,.4053,2.7095A5.8233,5.8233,0,0,0,83.52,28.1289a4.2269,4.2269,0,0,0,1.4942,1.1231,4.1847,4.1847,0,0,0,1.6943.3662,3.88,3.88,0,0,0,1.6065-.3223,4.198,4.198,0,0,0,1.25-.85,4.6644,4.6644,0,0,0,.8789-1.2061,5.4479,5.4479,0,0,0,.4931-1.3916h1.4746a7.5066,7.5066,0,0,1-.6738,1.9776,5.87,5.87,0,0,1-1.1865,1.6064,5.36,5.36,0,0,1-1.68,1.0791,5.6387,5.6387,0,0,1-2.1631.3955,6.1381,6.1381,0,0,1-2.5244-.5029A5.2791,5.2791,0,0,1,82.26,28.9492,6.7063,6.7063,0,0,1,81.0342,26.62a10.4508,10.4508,0,0,1-.43-3.1147,8.2343,8.2343,0,0,1,.41-2.5928,6.9344,6.9344,0,0,1,1.1866-2.207,5.7556,5.7556,0,0,1,1.9043-1.5332,5.6177,5.6177,0,0,1,2.5732-.5713,6.7742,6.7742,0,0,1,2.168.3222,5.3228,5.3228,0,0,1,1.665.8936,5.1818,5.1818,0,0,1,1.1865,1.3574,6.8685,6.8685,0,0,1,.7422,1.7236H90.9072a4.5722,4.5722,0,0,0-1.5674-2.28,4.4215,4.4215,0,0,0-2.6611-.7471,3.9255,3.9255,0,0,0-1.8652.4492,4.6229,4.6229,0,0,0-1.4649,1.2207,5.806,5.806,0,0,0-.957,1.7969A6.8509,6.8509,0,0,0,82.05,23.5151Z" transform="translate(-5 -1.1889)"/><path class="cls-3" d="M107.001,23.74a9.7912,9.7912,0,0,1-.4053,2.89A6.5608,6.5608,0,0,1,105.4092,28.9,5.3619,5.3619,0,0,1,103.49,30.38a6.686,6.686,0,0,1-5.205,0A5.3276,5.3276,0,0,1,96.3711,28.9,6.6364,6.6364,0,0,1,95.19,26.63a10.4567,10.4567,0,0,1,0-5.7661,6.5889,6.5889,0,0,1,1.1816-2.2608,5.3483,5.3483,0,0,1,1.9141-1.4746,6.686,6.686,0,0,1,5.205,0,5.383,5.383,0,0,1,1.919,1.4746,6.514,6.514,0,0,1,1.1865,2.2608A9.7059,9.7059,0,0,1,107.001,23.74Zm-1.4551,0a7.8006,7.8006,0,0,0-.3613-2.4658,5.6112,5.6112,0,0,0-.9912-1.8457,4.21,4.21,0,0,0-3.3057-1.5478,4.2968,4.2968,0,0,0-1.8359.3955,4.1917,4.1917,0,0,0-1.4747,1.1523,5.6313,5.6313,0,0,0-.9814,1.8457,8.7237,8.7237,0,0,0,0,4.9361,5.6162,5.6162,0,0,0,.9814,1.8505,4.3185,4.3185,0,0,0,5.1368,1.1573,4.2835,4.2835,0,0,0,1.48-1.1573,5.5961,5.5961,0,0,0,.9912-1.8505A7.8485,7.8485,0,0,0,105.5459,23.74Z" transform="translate(-5 -1.1889)"/><path class="cls-3" d="M119.8037,20.82a4.0526,4.0526,0,0,1-.1221.9961,3.8,3.8,0,0,1-.3613.9229,3.5114,3.5114,0,0,1-.6006.7959,3.7592,3.7592,0,0,1-.83.6245,2.2026,2.2026,0,0,1,.8643.415,2.0716,2.0716,0,0,1,.5273.6446,2.6952,2.6952,0,0,1,.2637.7958,5.21,5.21,0,0,1,.0733.879v2.0605a3.0245,3.0245,0,0,0,.122.8545,3.9523,3.9523,0,0,0,.3077.7568h-1.5723a1.3385,1.3385,0,0,1-.1514-.3564,3.4718,3.4718,0,0,1-.083-.4151c-.02-.1435-.0322-.2812-.0391-.415s-.01-.249-.01-.3467V26.8643a2.3834,2.3834,0,0,0-.1319-.7764,1.8017,1.8017,0,0,0-.43-.6885,2.1689,2.1689,0,0,0-.7764-.4883,3.2124,3.2124,0,0,0-1.1621-.1855h-4.1211v5.84H110.126V16.9429h5.5664a4.2307,4.2307,0,0,1,1.7627.3467,4.0292,4.0292,0,0,1,1.289.8984,3.8753,3.8753,0,0,1,1.06,2.6318Zm-8.2324,2.627h4.1211a2.5479,2.5479,0,0,0,1.0156-.2051,2.7035,2.7035,0,0,0,.8447-.5664,2.7394,2.7394,0,0,0,.5811-.84,2.4943,2.4943,0,0,0,.2148-1.0351,2.5194,2.5194,0,0,0-.2-1.0107,2.42,2.42,0,0,0-.5566-.8057,2.5311,2.5311,0,0,0-.8447-.5322,2.8741,2.8741,0,0,0-1.0547-.1905h-4.1211Z" transform="translate(-5 -1.1889)"/><path class="cls-3" d="M132.7236,16.9429v1.3183h-7.6367v4.6094h7.1875v1.3179h-7.1875v5.0586h7.9785v1.3183h-9.4238V16.9429Z" transform="translate(-5 -1.1889)"/></g></svg>